<?xml version="1.0" encoding="utf-8"?>
<!-- Generator: Adobe Illustrator 19.1.0, SVG Export Plug-In . SVG Version: 6.00 Build 0)  -->
<svg version="1.1" id="Layer_1" xmlns="http://www.w3.org/2000/svg" xmlns:xlink="http://www.w3.org/1999/xlink" x="0px" y="0px"
	 viewBox="0 0 271.2 170.7" style="enable-background:new 0 0 271.2 170.7;" xml:space="preserve">
<style type="text/css">
	.st0{fill:#8A162C;}
	.st1{fill:#C61535;}
	.st2{fill:#E20538;}
	.st3{fill:#FFFFFF;}
</style>
<g>
	<g>
		<circle class="st0" cx="160.2" cy="65.3" r="65.5"/>
		<circle class="st1" cx="160.2" cy="65.3" r="47.8"/>
		<circle class="st2" cx="160.2" cy="65.3" r="25.6"/>
	</g>
	<g>
		<g>
			<g>
				<g>
					<g>
						<g>
							<path class="st3" d="M27.2,34.7c0-4.4-2.6-9.2-2.6-9.2c-1-2-2.1-4.2-4.5-5.5c0,0-0.3-0.1-0.3-0.2l-2.6-1.2l-1.3-1.1l-2,2
								l0.8,6l-0.9,0.3l-0.9-0.3l0.8-6l-2-2l-1.3,1.1l-2.6,1.2c-0.1,0-0.3,0.1-0.3,0.2C5.1,21.3,4,23.5,3,25.5c0,0-2.1,4.4-2.6,9.2
								c0,0.1,0,0.1,0,0.2c0,1.4,1.2,2.6,2.8,2.6c0.1,0,0.2,0,0.3,0c0.8-0.1,1.4-0.4,2-0.7l8,2.2c0,0,0,0,0.1,0l0,0c0,0,0,0,0,0
								c0.1,0,0.1,0,0.1,0c0,0,0.1,0,0.1,0c0,0,0,0,0.1,0c0,0,0,0,0.1,0l8-2.2c0.6,0.3,1.3,0.6,2,0.7c0.1,0,0.2,0,0.3,0
								c1.5,0,2.8-1.2,2.8-2.6C27.2,34.8,27.2,34.8,27.2,34.7z M12.8,36.8l-5.2-1.4c0.6-0.8,0.6-1.9,0-2.7C7.4,32.3,7,32,6.5,31.9
								v-6.1l6.3,1.7L12.8,36.8L12.8,36.8z M21.1,31.9c-0.4,0.1-0.9,0.4-1.2,0.8c-0.6,0.8-0.6,1.9,0,2.7l-5.2,1.4v-9.2l6.3-1.7
								L21.1,31.9L21.1,31.9z"/>
							<path class="st3" d="M13.8,17.5c2.6,0,6.2-3.3,6.2-8.8c0-3.8-1.8-6.1-6.2-6.1c-4.4,0-6.3,2.3-6.2,6.1
								C7.6,14.2,10.7,17.5,13.8,17.5z M12.6,10.3c3.2,0.3,6-4.2,6-0.1c0,2.4-2.3,6.1-4.7,6.1c-2.6,0-4.4-3-4.7-6.1
								C8.7,6.8,14.7,7.6,12.6,10.3z"/>
						</g>
					</g>
				</g>
				<g>
					<g>
						<g>
							<path class="st3" d="M75.9,34.7c0-4.4-2.6-9.2-2.6-9.2c-1-2-2.1-4.2-4.5-5.5c0,0-0.3-0.1-0.3-0.2l-2.6-1.2l-1.3-1.1l-2,2
								l0.8,6l-0.9,0.3l-0.9-0.3l0.8-6l-2-2l-1.3,1.1l-2.6,1.2c-0.1,0-0.3,0.1-0.3,0.2c-2.4,1.3-3.5,3.6-4.5,5.5
								c0,0-2.1,4.4-2.6,9.2c0,0.1,0,0.1,0,0.2c0,1.4,1.2,2.6,2.8,2.6c0.1,0,0.2,0,0.3,0c0.8-0.1,1.4-0.4,2-0.7l8,2.2c0,0,0,0,0.1,0
								l0,0c0,0,0,0,0,0c0.1,0,0.1,0,0.1,0c0,0,0.1,0,0.1,0c0,0,0,0,0.1,0c0,0,0,0,0.1,0l8-2.2c0.6,0.3,1.3,0.6,2,0.7
								c0.1,0,0.2,0,0.3,0c1.5,0,2.8-1.2,2.8-2.6C75.9,34.8,75.9,34.8,75.9,34.7z M61.5,36.8l-5.2-1.4c0.6-0.8,0.6-1.9,0-2.7
								c-0.3-0.4-0.7-0.7-1.2-0.8v-6.1l6.3,1.7L61.5,36.8L61.5,36.8z M69.8,31.9c-0.4,0.1-0.9,0.4-1.2,0.8c-0.6,0.8-0.6,1.9,0,2.7
								l-5.2,1.4v-9.2l6.3-1.7L69.8,31.9L69.8,31.9z"/>
							<path class="st3" d="M62.5,17.5c2.6,0,6.2-3.3,6.2-8.8c0-3.8-1.8-6.1-6.2-6.1c-4.4,0-6.3,2.3-6.2,6.1
								C56.3,14.2,59.4,17.5,62.5,17.5z M61.3,10.3c3.2,0.3,6-4.2,6-0.1c0,2.4-2.3,6.1-4.7,6.1c-2.6,0-4.4-3-4.7-6.1
								C57.4,6.8,63.4,7.6,61.3,10.3z"/>
						</g>
					</g>
				</g>
				<g>
					<g>
						<g>
							<path class="st3" d="M124.9,34.9c0-4.4-2.6-9.2-2.6-9.2c-1-2-2.1-4.2-4.5-5.5c0,0-0.3-0.1-0.3-0.2l-2.6-1.2l-1.3-1.1l-2,2
								l0.8,6l-0.9,0.3l-0.9-0.3l0.8-6l-2-2l-1.3,1.1l-2.6,1.2c-0.1,0-0.3,0.1-0.3,0.2c-2.4,1.3-3.5,3.6-4.5,5.5
								c0,0-2.1,4.4-2.6,9.2c0,0.1,0,0.1,0,0.2c0,1.4,1.2,2.6,2.8,2.6c0.1,0,0.2,0,0.3,0c0.8-0.1,1.4-0.4,2-0.7l8,2.2c0,0,0,0,0.1,0
								l0,0c0,0,0,0,0,0c0.1,0,0.1,0,0.1,0c0,0,0.1,0,0.1,0c0,0,0,0,0.1,0c0,0,0,0,0.1,0l8-2.2c0.6,0.3,1.3,0.6,2,0.7
								c0.1,0,0.2,0,0.3,0c1.5,0,2.8-1.2,2.8-2.6C124.9,35.1,124.9,35,124.9,34.9z M110.5,37l-5.2-1.4c0.6-0.8,0.6-1.9,0-2.7
								c-0.3-0.4-0.7-0.7-1.2-0.8V26l6.3,1.7L110.5,37L110.5,37z M118.8,32.1c-0.4,0.1-0.9,0.4-1.2,0.8c-0.6,0.8-0.6,1.9,0,2.7
								l-5.2,1.4v-9.2l6.3-1.7L118.8,32.1L118.8,32.1z"/>
							<path class="st3" d="M111.5,17.8c2.6,0,6.2-3.3,6.2-8.8c0-3.8-1.8-6.1-6.2-6.1c-4.4,0-6.3,2.3-6.2,6.1
								C105.3,14.5,108.4,17.8,111.5,17.8z M110.2,10.5c3.2,0.3,6-4.2,6-0.1c0,2.4-2.3,6.1-4.7,6.1c-2.6,0-4.4-3-4.7-6.1
								C106.4,7.1,112.4,7.8,110.2,10.5z"/>
						</g>
					</g>
				</g>
			</g>
			<g>
				<g>
					<g>
						<g>
							<path class="st3" d="M173.9,34.9c0-4.4-2.6-9.2-2.6-9.2c-1-2-2.1-4.2-4.5-5.5c0,0-0.3-0.1-0.3-0.2l-2.6-1.2l-1.3-1.1l-2,2
								l0.8,6l-0.9,0.3l-0.9-0.3l0.8-6l-2-2l-1.3,1.1l-2.6,1.2c-0.1,0-0.3,0.1-0.3,0.2c-2.4,1.3-3.5,3.6-4.5,5.5
								c0,0-2.1,4.4-2.6,9.2c0,0.1,0,0.1,0,0.2c0,1.4,1.2,2.6,2.8,2.6c0.1,0,0.2,0,0.3,0c0.8-0.1,1.4-0.4,2-0.7l8,2.2c0,0,0,0,0.1,0
								l0,0c0,0,0,0,0,0c0.1,0,0.1,0,0.1,0c0,0,0.1,0,0.1,0c0,0,0,0,0.1,0c0,0,0,0,0.1,0l8-2.2c0.6,0.3,1.3,0.6,2,0.7
								c0.1,0,0.2,0,0.3,0c1.5,0,2.8-1.2,2.8-2.6C173.9,35.1,173.9,35,173.9,34.9z M159.5,37l-5.2-1.4c0.6-0.8,0.6-1.9,0-2.7
								c-0.3-0.4-0.7-0.7-1.2-0.8V26l6.3,1.7L159.5,37L159.5,37z M167.8,32.1c-0.4,0.1-0.9,0.4-1.2,0.8c-0.6,0.8-0.6,1.9,0,2.7
								l-5.2,1.4v-9.2l6.3-1.7L167.8,32.1L167.8,32.1z"/>
							<path class="st3" d="M160.5,17.8c2.6,0,6.2-3.3,6.2-8.8c0-3.8-1.8-6.1-6.2-6.1c-4.4,0-6.3,2.3-6.2,6.1
								C154.3,14.5,157.4,17.8,160.5,17.8z M159.2,10.5c3.2,0.3,6-4.2,6-0.1c0,2.4-2.3,6.1-4.7,6.1c-2.6,0-4.4-3-4.7-6.1
								C155.4,7.1,161.4,7.8,159.2,10.5z"/>
						</g>
					</g>
				</g>
				<g>
					<g>
						<g>
							<path class="st3" d="M222.6,34.9c0-4.4-2.6-9.2-2.6-9.2c-1-2-2.1-4.2-4.5-5.5c0,0-0.3-0.1-0.3-0.2l-2.6-1.2l-1.3-1.1l-2,2
								l0.8,6l-0.9,0.3l-0.9-0.3l0.8-6l-2-2l-1.3,1.1l-2.6,1.2c-0.1,0-0.3,0.1-0.3,0.2c-2.4,1.3-3.5,3.6-4.5,5.5
								c0,0-2.1,4.4-2.6,9.2c0,0.1,0,0.1,0,0.2c0,1.4,1.2,2.6,2.8,2.6c0.1,0,0.2,0,0.3,0c0.8-0.1,1.4-0.4,2-0.7l8,2.2c0,0,0,0,0.1,0
								l0,0c0,0,0,0,0,0c0.1,0,0.1,0,0.1,0c0,0,0.1,0,0.1,0c0,0,0,0,0.1,0c0,0,0,0,0.1,0l8-2.2c0.6,0.3,1.3,0.6,2,0.7
								c0.1,0,0.2,0,0.3,0c1.5,0,2.8-1.2,2.8-2.6C222.6,35.1,222.6,35,222.6,34.9z M208.2,37l-5.2-1.4c0.6-0.8,0.6-1.9,0-2.7
								c-0.3-0.4-0.7-0.7-1.2-0.8V26l6.3,1.7L208.2,37L208.2,37z M216.5,32.1c-0.4,0.1-0.9,0.4-1.2,0.8c-0.6,0.8-0.6,1.9,0,2.7
								l-5.2,1.4v-9.2l6.3-1.7L216.5,32.1L216.5,32.1z"/>
							<path class="st3" d="M209.2,17.8c2.6,0,6.2-3.3,6.2-8.8c0-3.8-1.8-6.1-6.2-6.1c-4.4,0-6.3,2.3-6.2,6.1
								C203,14.5,206.1,17.8,209.2,17.8z M207.9,10.5c3.2,0.3,6-4.2,6-0.1c0,2.4-2.3,6.1-4.7,6.1c-2.6,0-4.4-3-4.7-6.1
								C204.1,7.1,210.1,7.8,207.9,10.5z"/>
						</g>
					</g>
				</g>
				<g>
					<g>
						<g>
							<path class="st3" d="M271.6,35.2c0-4.4-2.6-9.2-2.6-9.2c-1-2-2.1-4.2-4.5-5.5c0,0-0.3-0.1-0.3-0.2l-2.6-1.2l-1.3-1.1l-2,2
								l0.8,6l-0.9,0.3l-0.9-0.3l0.8-6l-2-2l-1.3,1.1l-2.6,1.2c-0.1,0-0.3,0.1-0.3,0.2c-2.4,1.3-3.5,3.6-4.5,5.5
								c0,0-2.1,4.4-2.6,9.2c0,0.1,0,0.1,0,0.2c0,1.4,1.2,2.6,2.8,2.6c0.1,0,0.2,0,0.3,0c0.8-0.1,1.4-0.4,2-0.7l8,2.2c0,0,0,0,0.1,0
								l0,0c0,0,0,0,0,0c0.1,0,0.1,0,0.1,0c0,0,0.1,0,0.1,0c0,0,0,0,0.1,0c0,0,0,0,0.1,0l8-2.2c0.6,0.3,1.3,0.6,2,0.7
								c0.1,0,0.2,0,0.3,0c1.5,0,2.8-1.2,2.8-2.6C271.6,35.3,271.6,35.2,271.6,35.2z M257.2,37.2l-5.2-1.4c0.6-0.8,0.6-1.9,0-2.7
								c-0.3-0.4-0.7-0.7-1.2-0.8v-6.1l6.3,1.7L257.2,37.2L257.2,37.2z M265.5,32.3c-0.4,0.1-0.9,0.4-1.2,0.8
								c-0.6,0.8-0.6,1.9,0,2.7l-5.2,1.4V28l6.3-1.7L265.5,32.3L265.5,32.3z"/>
							<path class="st3" d="M258.2,18c2.6,0,6.2-3.3,6.2-8.8c0-3.8-1.8-6.1-6.2-6.1c-4.4,0-6.3,2.3-6.2,6.1
								C252,14.7,255.1,18,258.2,18z M256.9,10.7c3.2,0.3,6-4.2,6-0.1c0,2.4-2.3,6.1-4.7,6.1c-2.6,0-4.4-3-4.7-6.1
								C253.1,7.3,259.1,8,256.9,10.7z"/>
						</g>
					</g>
				</g>
			</g>
		</g>
		<g>
			<g>
				<g>
					<g>
						<g>
							<path class="st3" d="M27.2,122.2c0-4.4-2.6-9.2-2.6-9.2c-1-2-2.1-4.2-4.5-5.5c0,0-0.3-0.1-0.3-0.2l-2.6-1.2l-1.3-1.1l-2,2
								l0.8,6l-0.9,0.3l-0.9-0.3l0.8-6l-2-2l-1.3,1.1l-2.6,1.2c-0.1,0-0.3,0.1-0.3,0.2C5.1,108.7,4,111,3,112.9c0,0-2.1,4.4-2.6,9.2
								c0,0.1,0,0.1,0,0.2c0,1.4,1.2,2.6,2.8,2.6c0.1,0,0.2,0,0.3,0c0.8-0.1,1.4-0.4,2-0.7l8,2.2c0,0,0,0,0.1,0l0,0c0,0,0,0,0,0
								c0.1,0,0.1,0,0.1,0c0,0,0.1,0,0.1,0c0,0,0,0,0.1,0c0,0,0,0,0.1,0l8-2.2c0.6,0.3,1.3,0.6,2,0.7c0.1,0,0.2,0,0.3,0
								c1.5,0,2.8-1.2,2.8-2.6C27.2,122.3,27.2,122.2,27.2,122.2z M12.8,124.2l-5.2-1.4c0.6-0.8,0.6-1.9,0-2.7
								c-0.3-0.4-0.7-0.7-1.2-0.8v-6.1l6.3,1.7L12.8,124.2L12.8,124.2z M21.1,119.3c-0.4,0.1-0.9,0.4-1.2,0.8
								c-0.6,0.8-0.6,1.9,0,2.7l-5.2,1.4V115l6.3-1.7L21.1,119.3L21.1,119.3z"/>
							<path class="st3" d="M13.8,105c2.6,0,6.2-3.3,6.2-8.8c0-3.8-1.8-6.1-6.2-6.1c-4.4,0-6.3,2.3-6.2,6.1
								C7.6,101.7,10.7,105,13.8,105z M12.6,97.7c3.2,0.3,6-4.2,6-0.1c0,2.4-2.3,6.1-4.7,6.1c-2.6,0-4.4-3-4.7-6.1
								C8.7,94.3,14.7,95,12.6,97.7z"/>
						</g>
					</g>
				</g>
				<g>
					<g>
						<g>
							<path class="st3" d="M75.9,122.2c0-4.4-2.6-9.2-2.6-9.2c-1-2-2.1-4.2-4.5-5.5c0,0-0.3-0.1-0.3-0.2l-2.6-1.2l-1.3-1.1l-2,2
								l0.8,6l-0.9,0.3l-0.9-0.3l0.8-6l-2-2l-1.3,1.1l-2.6,1.2c-0.1,0-0.3,0.1-0.3,0.2c-2.4,1.3-3.5,3.6-4.5,5.5
								c0,0-2.1,4.4-2.6,9.2c0,0.1,0,0.1,0,0.2c0,1.4,1.2,2.6,2.8,2.6c0.1,0,0.2,0,0.3,0c0.8-0.1,1.4-0.4,2-0.7l8,2.2c0,0,0,0,0.1,0
								l0,0c0,0,0,0,0,0c0.1,0,0.1,0,0.1,0c0,0,0.1,0,0.1,0c0,0,0,0,0.1,0c0,0,0,0,0.1,0l8-2.2c0.6,0.3,1.3,0.6,2,0.7
								c0.1,0,0.2,0,0.3,0c1.5,0,2.8-1.2,2.8-2.6C75.9,122.3,75.9,122.2,75.9,122.2z M61.5,124.2l-5.2-1.4c0.6-0.8,0.6-1.9,0-2.7
								c-0.3-0.4-0.7-0.7-1.2-0.8v-6.1l6.3,1.7L61.5,124.2L61.5,124.2z M69.8,119.3c-0.4,0.1-0.9,0.4-1.2,0.8
								c-0.6,0.8-0.6,1.9,0,2.7l-5.2,1.4V115l6.3-1.7L69.8,119.3L69.8,119.3z"/>
							<path class="st3" d="M62.5,105c2.6,0,6.2-3.3,6.2-8.8c0-3.8-1.8-6.1-6.2-6.1c-4.4,0-6.3,2.3-6.2,6.1
								C56.3,101.7,59.4,105,62.5,105z M61.3,97.7c3.2,0.3,6-4.2,6-0.1c0,2.4-2.3,6.1-4.7,6.1c-2.6,0-4.4-3-4.7-6.1
								C57.4,94.3,63.4,95,61.3,97.7z"/>
						</g>
					</g>
				</g>
				<g>
					<g>
						<g>
							<path class="st3" d="M124.9,122.4c0-4.4-2.6-9.2-2.6-9.2c-1-2-2.1-4.2-4.5-5.5c0,0-0.3-0.1-0.3-0.2l-2.6-1.2l-1.3-1.1l-2,2
								l0.8,6l-0.9,0.3l-0.9-0.3l0.8-6l-2-2l-1.3,1.1l-2.6,1.2c-0.1,0-0.3,0.1-0.3,0.2c-2.4,1.3-3.5,3.6-4.5,5.5
								c0,0-2.1,4.4-2.6,9.2c0,0.1,0,0.1,0,0.2c0,1.4,1.2,2.6,2.8,2.6c0.1,0,0.2,0,0.3,0c0.8-0.1,1.4-0.4,2-0.7l8,2.2c0,0,0,0,0.1,0
								l0,0c0,0,0,0,0,0c0.1,0,0.1,0,0.1,0c0,0,0.1,0,0.1,0c0,0,0,0,0.1,0c0,0,0,0,0.1,0l8-2.2c0.6,0.3,1.3,0.6,2,0.7
								c0.1,0,0.2,0,0.3,0c1.5,0,2.8-1.2,2.8-2.6C124.9,122.5,124.9,122.4,124.9,122.4z M110.5,124.4l-5.2-1.4
								c0.6-0.8,0.6-1.9,0-2.7c-0.3-0.4-0.7-0.7-1.2-0.8v-6.1l6.3,1.7L110.5,124.4L110.5,124.4z M118.8,119.5
								c-0.4,0.1-0.9,0.4-1.2,0.8c-0.6,0.8-0.6,1.9,0,2.7l-5.2,1.4v-9.2l6.3-1.7L118.8,119.5L118.8,119.5z"/>
							<path class="st3" d="M111.5,105.2c2.6,0,6.2-3.3,6.2-8.8c0-3.8-1.8-6.1-6.2-6.1c-4.4,0-6.3,2.3-6.2,6.1
								C105.3,101.9,108.4,105.2,111.5,105.2z M110.2,97.9c3.2,0.3,6-4.2,6-0.1c0,2.4-2.3,6.1-4.7,6.1c-2.6,0-4.4-3-4.7-6.1
								C106.4,94.5,112.4,95.2,110.2,97.9z"/>
						</g>
					</g>
				</g>
			</g>
			<g>
				<g>
					<g>
						<g>
							<path class="st3" d="M173.9,122.4c0-4.4-2.6-9.2-2.6-9.2c-1-2-2.1-4.2-4.5-5.5c0,0-0.3-0.1-0.3-0.2l-2.6-1.2l-1.3-1.1l-2,2
								l0.8,6l-0.9,0.3l-0.9-0.3l0.8-6l-2-2l-1.3,1.1l-2.6,1.2c-0.1,0-0.3,0.1-0.3,0.2c-2.4,1.3-3.5,3.6-4.5,5.5
								c0,0-2.1,4.4-2.6,9.2c0,0.1,0,0.1,0,0.2c0,1.4,1.2,2.6,2.8,2.6c0.1,0,0.2,0,0.3,0c0.8-0.1,1.4-0.4,2-0.7l8,2.2c0,0,0,0,0.1,0
								l0,0c0,0,0,0,0,0c0.1,0,0.1,0,0.1,0c0,0,0.1,0,0.1,0c0,0,0,0,0.1,0c0,0,0,0,0.1,0l8-2.2c0.6,0.3,1.3,0.6,2,0.7
								c0.1,0,0.2,0,0.3,0c1.5,0,2.8-1.2,2.8-2.6C173.9,122.5,173.9,122.4,173.9,122.4z M159.5,124.4l-5.2-1.4
								c0.6-0.8,0.6-1.9,0-2.7c-0.3-0.4-0.7-0.7-1.2-0.8v-6.1l6.3,1.7L159.5,124.4L159.5,124.4z M167.8,119.5
								c-0.4,0.1-0.9,0.4-1.2,0.8c-0.6,0.8-0.6,1.9,0,2.7l-5.2,1.4v-9.2l6.3-1.7L167.8,119.5L167.8,119.5z"/>
							<path class="st3" d="M160.5,105.2c2.6,0,6.2-3.3,6.2-8.8c0-3.8-1.8-6.1-6.2-6.1c-4.4,0-6.3,2.3-6.2,6.1
								C154.3,101.9,157.4,105.2,160.5,105.2z M159.2,97.9c3.2,0.3,6-4.2,6-0.1c0,2.4-2.3,6.1-4.7,6.1c-2.6,0-4.4-3-4.7-6.1
								C155.4,94.5,161.4,95.2,159.2,97.9z"/>
						</g>
					</g>
				</g>
				<g>
					<g>
						<g>
							<path class="st3" d="M222.6,122.4c0-4.4-2.6-9.2-2.6-9.2c-1-2-2.1-4.2-4.5-5.5c0,0-0.3-0.1-0.3-0.2l-2.6-1.2l-1.3-1.1l-2,2
								l0.8,6l-0.9,0.3l-0.9-0.3l0.8-6l-2-2l-1.3,1.1l-2.6,1.2c-0.1,0-0.3,0.1-0.3,0.2c-2.4,1.3-3.5,3.6-4.5,5.5
								c0,0-2.1,4.4-2.6,9.2c0,0.1,0,0.1,0,0.2c0,1.4,1.2,2.6,2.8,2.6c0.1,0,0.2,0,0.3,0c0.8-0.1,1.4-0.4,2-0.7l8,2.2c0,0,0,0,0.1,0
								l0,0c0,0,0,0,0,0c0.1,0,0.1,0,0.1,0c0,0,0.1,0,0.1,0c0,0,0,0,0.1,0c0,0,0,0,0.1,0l8-2.2c0.6,0.3,1.3,0.6,2,0.7
								c0.1,0,0.2,0,0.3,0c1.5,0,2.8-1.2,2.8-2.6C222.6,122.5,222.6,122.4,222.6,122.4z M208.2,124.4L203,123c0.6-0.8,0.6-1.9,0-2.7
								c-0.3-0.4-0.7-0.7-1.2-0.8v-6.1l6.3,1.7L208.2,124.4L208.2,124.4z M216.5,119.5c-0.4,0.1-0.9,0.4-1.2,0.8
								c-0.6,0.8-0.6,1.9,0,2.7l-5.2,1.4v-9.2l6.3-1.7L216.5,119.5L216.5,119.5z"/>
							<path class="st3" d="M209.2,105.2c2.6,0,6.2-3.3,6.2-8.8c0-3.8-1.8-6.1-6.2-6.1c-4.4,0-6.3,2.3-6.2,6.1
								C203,101.9,206.1,105.2,209.2,105.2z M207.9,97.9c3.2,0.3,6-4.2,6-0.1c0,2.4-2.3,6.1-4.7,6.1c-2.6,0-4.4-3-4.7-6.1
								C204.1,94.5,210.1,95.2,207.9,97.9z"/>
						</g>
					</g>
				</g>
				<g>
					<g>
						<g>
							<path class="st3" d="M271.6,122.6c0-4.4-2.6-9.2-2.6-9.2c-1-2-2.1-4.2-4.5-5.5c0,0-0.3-0.1-0.3-0.2l-2.6-1.2l-1.3-1.1l-2,2
								l0.8,6l-0.9,0.3l-0.9-0.3l0.8-6l-2-2l-1.3,1.1l-2.6,1.2c-0.1,0-0.3,0.1-0.3,0.2c-2.4,1.3-3.5,3.6-4.5,5.5
								c0,0-2.1,4.4-2.6,9.2c0,0.1,0,0.1,0,0.2c0,1.4,1.2,2.6,2.8,2.6c0.1,0,0.2,0,0.3,0c0.8-0.1,1.4-0.4,2-0.7l8,2.2c0,0,0,0,0.1,0
								l0,0c0,0,0,0,0,0c0.1,0,0.1,0,0.1,0c0,0,0.1,0,0.1,0c0,0,0,0,0.1,0c0,0,0,0,0.1,0l8-2.2c0.6,0.3,1.3,0.6,2,0.7
								c0.1,0,0.2,0,0.3,0c1.5,0,2.8-1.2,2.8-2.6C271.6,122.7,271.6,122.6,271.6,122.6z M257.2,124.6l-5.2-1.4
								c0.6-0.8,0.6-1.9,0-2.7c-0.3-0.4-0.7-0.7-1.2-0.8v-6.1l6.3,1.7L257.2,124.6L257.2,124.6z M265.5,119.7
								c-0.4,0.1-0.9,0.4-1.2,0.8c-0.6,0.8-0.6,1.9,0,2.7l-5.2,1.4v-9.2l6.3-1.7L265.5,119.7L265.5,119.7z"/>
							<path class="st3" d="M258.2,105.4c2.6,0,6.2-3.3,6.2-8.8c0-3.8-1.8-6.1-6.2-6.1c-4.4,0-6.3,2.3-6.2,6.1
								C252,102.1,255.1,105.4,258.2,105.4z M256.9,98.1c3.2,0.3,6-4.2,6-0.1c0,2.4-2.3,6.1-4.7,6.1c-2.6,0-4.4-3-4.7-6.1
								C253.1,94.7,259.1,95.4,256.9,98.1z"/>
						</g>
					</g>
				</g>
			</g>
		</g>
		<g>
			<g>
				<g>
					<g>
						<g>
							<path class="st3" d="M27.2,165.7c0-4.4-2.6-9.2-2.6-9.2c-1-2-2.1-4.2-4.5-5.5c0,0-0.3-0.1-0.3-0.2l-2.6-1.2l-1.3-1.1l-2,2
								l0.8,6l-0.9,0.3l-0.9-0.3l0.8-6l-2-2l-1.3,1.1l-2.6,1.2c-0.1,0-0.3,0.1-0.3,0.2c-2.4,1.3-3.5,3.6-4.5,5.5
								c0,0-2.1,4.4-2.6,9.2c0,0.1,0,0.1,0,0.2c0,1.4,1.2,2.6,2.8,2.6c0.1,0,0.2,0,0.3,0c0.8-0.1,1.4-0.4,2-0.7l8,2.2c0,0,0,0,0.1,0
								l0,0c0,0,0,0,0,0c0.1,0,0.1,0,0.1,0c0,0,0.1,0,0.1,0c0,0,0,0,0.1,0c0,0,0,0,0.1,0l8-2.2c0.6,0.3,1.3,0.6,2,0.7
								c0.1,0,0.2,0,0.3,0c1.5,0,2.8-1.2,2.8-2.6C27.2,165.9,27.2,165.8,27.2,165.7z M12.8,167.8l-5.2-1.4c0.6-0.8,0.6-1.9,0-2.7
								c-0.3-0.4-0.7-0.7-1.2-0.8v-6.1l6.3,1.7L12.8,167.8L12.8,167.8z M21.1,162.9c-0.4,0.1-0.9,0.4-1.2,0.8
								c-0.6,0.8-0.6,1.9,0,2.7l-5.2,1.4v-9.2l6.3-1.7L21.1,162.9L21.1,162.9z"/>
							<path class="st3" d="M13.8,148.6c2.6,0,6.2-3.3,6.2-8.8c0-3.8-1.8-6.1-6.2-6.1c-4.4,0-6.3,2.3-6.2,6.1
								C7.6,145.3,10.7,148.6,13.8,148.6z M12.6,141.3c3.2,0.3,6-4.2,6-0.1c0,2.4-2.3,6.1-4.7,6.1c-2.6,0-4.4-3-4.7-6.1
								C8.7,137.9,14.7,138.6,12.6,141.3z"/>
						</g>
					</g>
				</g>
				<g>
					<g>
						<g>
							<path class="st3" d="M75.9,165.7c0-4.4-2.6-9.2-2.6-9.2c-1-2-2.1-4.2-4.5-5.5c0,0-0.3-0.1-0.3-0.2l-2.6-1.2l-1.3-1.1l-2,2
								l0.8,6l-0.9,0.3l-0.9-0.3l0.8-6l-2-2l-1.3,1.1l-2.6,1.2c-0.1,0-0.3,0.1-0.3,0.2c-2.4,1.3-3.5,3.6-4.5,5.5
								c0,0-2.1,4.4-2.6,9.2c0,0.1,0,0.1,0,0.2c0,1.4,1.2,2.6,2.8,2.6c0.1,0,0.2,0,0.3,0c0.8-0.1,1.4-0.4,2-0.7l8,2.2c0,0,0,0,0.1,0
								l0,0c0,0,0,0,0,0c0.1,0,0.1,0,0.1,0c0,0,0.1,0,0.1,0c0,0,0,0,0.1,0c0,0,0,0,0.1,0l8-2.2c0.6,0.3,1.3,0.6,2,0.7
								c0.1,0,0.2,0,0.3,0c1.5,0,2.8-1.2,2.8-2.6C75.9,165.9,75.9,165.8,75.9,165.7z M61.5,167.8l-5.2-1.4c0.6-0.8,0.6-1.9,0-2.7
								c-0.3-0.4-0.7-0.7-1.2-0.8v-6.1l6.3,1.7L61.5,167.8L61.5,167.8z M69.8,162.9c-0.4,0.1-0.9,0.4-1.2,0.8
								c-0.6,0.8-0.6,1.9,0,2.7l-5.2,1.4v-9.2l6.3-1.7L69.8,162.9L69.8,162.9z"/>
							<path class="st3" d="M62.5,148.6c2.6,0,6.2-3.3,6.2-8.8c0-3.8-1.8-6.1-6.2-6.1c-4.4,0-6.3,2.3-6.2,6.1
								C56.3,145.3,59.4,148.6,62.5,148.6z M61.3,141.3c3.2,0.3,6-4.2,6-0.1c0,2.4-2.3,6.1-4.7,6.1c-2.6,0-4.4-3-4.7-6.1
								C57.4,137.9,63.4,138.6,61.3,141.3z"/>
						</g>
					</g>
				</g>
				<g>
					<g>
						<g>
							<path class="st3" d="M124.9,166c0-4.4-2.6-9.2-2.6-9.2c-1-2-2.1-4.2-4.5-5.5c0,0-0.3-0.1-0.3-0.2l-2.6-1.2l-1.3-1.1l-2,2
								l0.8,6l-0.9,0.3l-0.9-0.3l0.8-6l-2-2l-1.3,1.1l-2.6,1.2c-0.1,0-0.3,0.1-0.3,0.2c-2.4,1.3-3.5,3.6-4.5,5.5
								c0,0-2.1,4.4-2.6,9.2c0,0.1,0,0.1,0,0.2c0,1.4,1.2,2.6,2.8,2.6c0.1,0,0.2,0,0.3,0c0.8-0.1,1.4-0.4,2-0.7l8,2.2c0,0,0,0,0.1,0
								l0,0c0,0,0,0,0,0c0.1,0,0.1,0,0.1,0c0,0,0.1,0,0.1,0c0,0,0,0,0.1,0c0,0,0,0,0.1,0l8-2.2c0.6,0.3,1.3,0.6,2,0.7
								c0.1,0,0.2,0,0.3,0c1.5,0,2.8-1.2,2.8-2.6C124.9,166.1,124.9,166,124.9,166z M110.5,168l-5.2-1.4c0.6-0.8,0.6-1.9,0-2.7
								c-0.3-0.4-0.7-0.7-1.2-0.8V157l6.3,1.7L110.5,168L110.5,168z M118.8,163.1c-0.4,0.1-0.9,0.4-1.2,0.8c-0.6,0.8-0.6,1.9,0,2.7
								l-5.2,1.4v-9.2l6.3-1.7L118.8,163.1L118.8,163.1z"/>
							<path class="st3" d="M111.5,148.8c2.6,0,6.2-3.3,6.2-8.8c0-3.8-1.8-6.1-6.2-6.1c-4.4,0-6.3,2.3-6.2,6.1
								C105.3,145.5,108.4,148.8,111.5,148.8z M110.2,141.5c3.2,0.3,6-4.2,6-0.1c0,2.4-2.3,6.1-4.7,6.1c-2.6,0-4.4-3-4.7-6.1
								C106.4,138.1,112.4,138.8,110.2,141.5z"/>
						</g>
					</g>
				</g>
			</g>
			<g>
				<g>
					<g>
						<g>
							<path class="st3" d="M173.9,166c0-4.4-2.6-9.2-2.6-9.2c-1-2-2.1-4.2-4.5-5.5c0,0-0.3-0.1-0.3-0.2l-2.6-1.2l-1.3-1.1l-2,2
								l0.8,6l-0.9,0.3l-0.9-0.3l0.8-6l-2-2l-1.3,1.1l-2.6,1.2c-0.1,0-0.3,0.1-0.3,0.2c-2.4,1.3-3.5,3.6-4.5,5.5
								c0,0-2.1,4.4-2.6,9.2c0,0.1,0,0.1,0,0.2c0,1.4,1.2,2.6,2.8,2.6c0.1,0,0.2,0,0.3,0c0.8-0.1,1.4-0.4,2-0.7l8,2.2c0,0,0,0,0.1,0
								l0,0c0,0,0,0,0,0c0.1,0,0.1,0,0.1,0c0,0,0.1,0,0.1,0c0,0,0,0,0.1,0c0,0,0,0,0.1,0l8-2.2c0.6,0.3,1.3,0.6,2,0.7
								c0.1,0,0.2,0,0.3,0c1.5,0,2.8-1.2,2.8-2.6C173.9,166.1,173.9,166,173.9,166z M159.5,168l-5.2-1.4c0.6-0.8,0.6-1.9,0-2.7
								c-0.3-0.4-0.7-0.7-1.2-0.8V157l6.3,1.7L159.5,168L159.5,168z M167.8,163.1c-0.4,0.1-0.9,0.4-1.2,0.8c-0.6,0.8-0.6,1.9,0,2.7
								l-5.2,1.4v-9.2l6.3-1.7L167.8,163.1L167.8,163.1z"/>
							<path class="st3" d="M160.5,148.8c2.6,0,6.2-3.3,6.2-8.8c0-3.8-1.8-6.1-6.2-6.1c-4.4,0-6.3,2.3-6.2,6.1
								C154.3,145.5,157.4,148.8,160.5,148.8z M159.2,141.5c3.2,0.3,6-4.2,6-0.1c0,2.4-2.3,6.1-4.7,6.1c-2.6,0-4.4-3-4.7-6.1
								C155.4,138.1,161.4,138.8,159.2,141.5z"/>
						</g>
					</g>
				</g>
				<g>
					<g>
						<g>
							<path class="st3" d="M222.6,166c0-4.4-2.6-9.2-2.6-9.2c-1-2-2.1-4.2-4.5-5.5c0,0-0.3-0.1-0.3-0.2l-2.6-1.2l-1.3-1.1l-2,2
								l0.8,6l-0.9,0.3l-0.9-0.3l0.8-6l-2-2l-1.3,1.1l-2.6,1.2c-0.1,0-0.3,0.1-0.3,0.2c-2.4,1.3-3.5,3.6-4.5,5.5
								c0,0-2.1,4.4-2.6,9.2c0,0.1,0,0.1,0,0.2c0,1.4,1.2,2.6,2.8,2.6c0.1,0,0.2,0,0.3,0c0.8-0.1,1.4-0.4,2-0.7l8,2.2c0,0,0,0,0.1,0
								l0,0c0,0,0,0,0,0c0.1,0,0.1,0,0.1,0c0,0,0.1,0,0.1,0c0,0,0,0,0.1,0c0,0,0,0,0.1,0l8-2.2c0.6,0.3,1.3,0.6,2,0.7
								c0.1,0,0.2,0,0.3,0c1.5,0,2.8-1.2,2.8-2.6C222.6,166.1,222.6,166,222.6,166z M208.2,168l-5.2-1.4c0.6-0.8,0.6-1.9,0-2.7
								c-0.3-0.4-0.7-0.7-1.2-0.8V157l6.3,1.7L208.2,168L208.2,168z M216.5,163.1c-0.4,0.1-0.9,0.4-1.2,0.8c-0.6,0.8-0.6,1.9,0,2.7
								l-5.2,1.4v-9.2l6.3-1.7L216.5,163.1L216.5,163.1z"/>
							<path class="st3" d="M209.2,148.8c2.6,0,6.2-3.3,6.2-8.8c0-3.8-1.8-6.1-6.2-6.1c-4.4,0-6.3,2.3-6.2,6.1
								C203,145.5,206.1,148.8,209.2,148.8z M207.9,141.5c3.2,0.3,6-4.2,6-0.1c0,2.4-2.3,6.1-4.7,6.1c-2.6,0-4.4-3-4.7-6.1
								C204.1,138.1,210.1,138.8,207.9,141.5z"/>
						</g>
					</g>
				</g>
				<g>
					<g>
						<g>
							<path class="st3" d="M271.6,166.2c0-4.4-2.6-9.2-2.6-9.2c-1-2-2.1-4.2-4.5-5.5c0,0-0.3-0.1-0.3-0.2l-2.6-1.2l-1.3-1.1l-2,2
								l0.8,6l-0.9,0.3l-0.9-0.3l0.8-6l-2-2l-1.3,1.1l-2.6,1.2c-0.1,0-0.3,0.1-0.3,0.2c-2.4,1.3-3.5,3.6-4.5,5.5
								c0,0-2.1,4.4-2.6,9.2c0,0.1,0,0.1,0,0.2c0,1.4,1.2,2.6,2.8,2.6c0.1,0,0.2,0,0.3,0c0.8-0.1,1.4-0.4,2-0.7l8,2.2c0,0,0,0,0.1,0
								l0,0c0,0,0,0,0,0c0.1,0,0.1,0,0.1,0c0,0,0.1,0,0.1,0c0,0,0,0,0.1,0c0,0,0,0,0.1,0l8-2.2c0.6,0.3,1.3,0.6,2,0.7
								c0.1,0,0.2,0,0.3,0c1.5,0,2.8-1.2,2.8-2.6C271.6,166.3,271.6,166.2,271.6,166.2z M257.2,168.2l-5.2-1.4
								c0.6-0.8,0.6-1.9,0-2.7c-0.3-0.4-0.7-0.7-1.2-0.8v-6.1l6.3,1.7L257.2,168.2L257.2,168.2z M265.5,163.3
								c-0.4,0.1-0.9,0.4-1.2,0.8c-0.6,0.8-0.6,1.9,0,2.7l-5.2,1.4V159l6.3-1.7L265.5,163.3L265.5,163.3z"/>
							<path class="st3" d="M258.2,149c2.6,0,6.2-3.3,6.2-8.8c0-3.8-1.8-6.1-6.2-6.1c-4.4,0-6.3,2.3-6.2,6.1
								C252,145.7,255.1,149,258.2,149z M256.9,141.7c3.2,0.3,6-4.2,6-0.1c0,2.4-2.3,6.1-4.7,6.1c-2.6,0-4.4-3-4.7-6.1
								C253.1,138.3,259.1,139,256.9,141.7z"/>
						</g>
					</g>
				</g>
			</g>
		</g>
		<g>
			<g>
				<g>
					<g>
						<g>
							<path class="st3" d="M27.2,78.4c0-4.4-2.6-9.2-2.6-9.2c-1-2-2.1-4.2-4.5-5.5c0,0-0.3-0.1-0.3-0.2l-2.6-1.2l-1.3-1.1l-2,2
								l0.8,6l-0.9,0.3l-0.9-0.3l0.8-6l-2-2l-1.3,1.1l-2.6,1.2c-0.1,0-0.3,0.1-0.3,0.2C5.1,64.9,4,67.2,3,69.1c0,0-2.1,4.4-2.6,9.2
								c0,0.1,0,0.1,0,0.2c0,1.4,1.2,2.6,2.8,2.6c0.1,0,0.2,0,0.3,0c0.8-0.1,1.4-0.4,2-0.7l8,2.2c0,0,0,0,0.1,0l0,0c0,0,0,0,0,0
								c0.1,0,0.1,0,0.1,0c0,0,0.1,0,0.1,0c0,0,0,0,0.1,0c0,0,0,0,0.1,0l8-2.2c0.6,0.3,1.3,0.6,2,0.7c0.1,0,0.2,0,0.3,0
								c1.5,0,2.8-1.2,2.8-2.6C27.2,78.5,27.2,78.4,27.2,78.4z M12.8,80.4L7.6,79c0.6-0.8,0.6-1.9,0-2.7c-0.3-0.4-0.7-0.7-1.2-0.8
								v-6.1l6.3,1.7L12.8,80.4L12.8,80.4z M21.1,75.5c-0.4,0.1-0.9,0.4-1.2,0.8c-0.6,0.8-0.6,1.9,0,2.7l-5.2,1.4v-9.2l6.3-1.7
								L21.1,75.5L21.1,75.5z"/>
							<path class="st3" d="M13.8,61.2c2.6,0,6.2-3.3,6.2-8.8c0-3.8-1.8-6.1-6.2-6.1c-4.4,0-6.3,2.3-6.2,6.1
								C7.6,57.9,10.7,61.2,13.8,61.2z M12.6,53.9c3.2,0.3,6-4.2,6-0.1c0,2.4-2.3,6.1-4.7,6.1c-2.6,0-4.4-3-4.7-6.1
								C8.7,50.5,14.7,51.2,12.6,53.9z"/>
						</g>
					</g>
				</g>
				<g>
					<g>
						<g>
							<path class="st3" d="M75.9,78.4c0-4.4-2.6-9.2-2.6-9.2c-1-2-2.1-4.2-4.5-5.5c0,0-0.3-0.1-0.3-0.2l-2.6-1.2l-1.3-1.1l-2,2
								l0.8,6l-0.9,0.3l-0.9-0.3l0.8-6l-2-2l-1.3,1.1l-2.6,1.2c-0.1,0-0.3,0.1-0.3,0.2c-2.4,1.3-3.5,3.6-4.5,5.5
								c0,0-2.1,4.4-2.6,9.2c0,0.1,0,0.1,0,0.2c0,1.4,1.2,2.6,2.8,2.6c0.1,0,0.2,0,0.3,0c0.8-0.1,1.4-0.4,2-0.7l8,2.2c0,0,0,0,0.1,0
								l0,0c0,0,0,0,0,0c0.1,0,0.1,0,0.1,0c0,0,0.1,0,0.1,0c0,0,0,0,0.1,0c0,0,0,0,0.1,0l8-2.2c0.6,0.3,1.3,0.6,2,0.7
								c0.1,0,0.2,0,0.3,0c1.5,0,2.8-1.2,2.8-2.6C75.9,78.5,75.9,78.4,75.9,78.4z M61.5,80.4L56.3,79c0.6-0.8,0.6-1.9,0-2.7
								c-0.3-0.4-0.7-0.7-1.2-0.8v-6.1l6.3,1.7L61.5,80.4L61.5,80.4z M69.8,75.5c-0.4,0.1-0.9,0.4-1.2,0.8c-0.6,0.8-0.6,1.9,0,2.7
								l-5.2,1.4v-9.2l6.3-1.7L69.8,75.5L69.8,75.5z"/>
							<path class="st3" d="M62.5,61.2c2.6,0,6.2-3.3,6.2-8.8c0-3.8-1.8-6.1-6.2-6.1c-4.4,0-6.3,2.3-6.2,6.1
								C56.3,57.9,59.4,61.2,62.5,61.2z M61.3,53.9c3.2,0.3,6-4.2,6-0.1c0,2.4-2.3,6.1-4.7,6.1c-2.6,0-4.4-3-4.7-6.1
								C57.4,50.5,63.4,51.2,61.3,53.9z"/>
						</g>
					</g>
				</g>
				<g>
					<g>
						<g>
							<path class="st3" d="M124.9,78.6c0-4.4-2.6-9.2-2.6-9.2c-1-2-2.1-4.2-4.5-5.5c0,0-0.3-0.1-0.3-0.2l-2.6-1.2l-1.3-1.1l-2,2
								l0.8,6l-0.9,0.3l-0.9-0.3l0.8-6l-2-2l-1.3,1.1l-2.6,1.2c-0.1,0-0.3,0.1-0.3,0.2c-2.4,1.3-3.5,3.6-4.5,5.5
								c0,0-2.1,4.4-2.6,9.2c0,0.1,0,0.1,0,0.2c0,1.4,1.2,2.6,2.8,2.6c0.1,0,0.2,0,0.3,0c0.8-0.1,1.4-0.4,2-0.7l8,2.2c0,0,0,0,0.1,0
								l0,0c0,0,0,0,0,0c0.1,0,0.1,0,0.1,0c0,0,0.1,0,0.1,0c0,0,0,0,0.1,0c0,0,0,0,0.1,0l8-2.2c0.6,0.3,1.3,0.6,2,0.7
								c0.1,0,0.2,0,0.3,0c1.5,0,2.8-1.2,2.8-2.6C124.9,78.7,124.9,78.6,124.9,78.6z M110.5,80.6l-5.2-1.4c0.6-0.8,0.6-1.9,0-2.7
								c-0.3-0.4-0.7-0.7-1.2-0.8v-6.1l6.3,1.7L110.5,80.6L110.5,80.6z M118.8,75.7c-0.4,0.1-0.9,0.4-1.2,0.8
								c-0.6,0.8-0.6,1.9,0,2.7l-5.2,1.4v-9.2l6.3-1.7L118.8,75.7L118.8,75.7z"/>
							<path class="st3" d="M111.5,61.4c2.6,0,6.2-3.3,6.2-8.8c0-3.8-1.8-6.1-6.2-6.1c-4.4,0-6.3,2.3-6.2,6.1
								C105.3,58.1,108.4,61.4,111.5,61.4z M110.2,54.1c3.2,0.3,6-4.2,6-0.1c0,2.4-2.3,6.1-4.7,6.1c-2.6,0-4.4-3-4.7-6.1
								C106.4,50.7,112.4,51.4,110.2,54.1z"/>
						</g>
					</g>
				</g>
			</g>
			<g>
				<g>
					<g>
						<path class="st3" d="M222.6,78.6c0-4.4-2.6-9.2-2.6-9.2c-1-2-2.1-4.2-4.5-5.5c0,0-0.3-0.1-0.3-0.2l-2.6-1.2l-1.3-1.1l-2,2
							l0.8,6l-0.9,0.3l-0.9-0.3l0.8-6l-2-2l-1.3,1.1l-2.6,1.2c-0.1,0-0.3,0.1-0.3,0.2c-2.4,1.3-3.5,3.6-4.5,5.5c0,0-2.1,4.4-2.6,9.2
							c0,0.1,0,0.1,0,0.2c0,1.4,1.2,2.6,2.8,2.6c0.1,0,0.2,0,0.3,0c0.8-0.1,1.4-0.4,2-0.7l8,2.2c0,0,0,0,0.1,0l0,0c0,0,0,0,0,0
							c0.1,0,0.1,0,0.1,0c0,0,0.1,0,0.1,0c0,0,0,0,0.1,0c0,0,0,0,0.1,0l8-2.2c0.6,0.3,1.3,0.6,2,0.7c0.1,0,0.2,0,0.3,0
							c1.5,0,2.8-1.2,2.8-2.6C222.6,78.7,222.6,78.6,222.6,78.6z M208.2,80.6l-5.2-1.4c0.6-0.8,0.6-1.9,0-2.7
							c-0.3-0.4-0.7-0.7-1.2-0.8v-6.1l6.3,1.7L208.2,80.6L208.2,80.6z M216.5,75.7c-0.4,0.1-0.9,0.4-1.2,0.8c-0.6,0.8-0.6,1.9,0,2.7
							l-5.2,1.4v-9.2l6.3-1.7L216.5,75.7L216.5,75.7z"/>
						<path class="st3" d="M209.2,61.4c2.6,0,6.2-3.3,6.2-8.8c0-3.8-1.8-6.1-6.2-6.1c-4.4,0-6.3,2.3-6.2,6.1
							C203,58.1,206.1,61.4,209.2,61.4z M207.9,54.1c3.2,0.3,6-4.2,6-0.1c0,2.4-2.3,6.1-4.7,6.1c-2.6,0-4.4-3-4.7-6.1
							C204.1,50.7,210.1,51.4,207.9,54.1z"/>
					</g>
				</g>
			</g>
			<g>
				<g>
					<g>
						<path class="st3" d="M271.6,78.8c0-4.4-2.6-9.2-2.6-9.2c-1-2-2.1-4.2-4.5-5.5c0,0-0.3-0.1-0.3-0.2l-2.6-1.2l-1.3-1.1l-2,2
							l0.8,6l-0.9,0.3l-0.9-0.3l0.8-6l-2-2l-1.3,1.1l-2.6,1.2c-0.1,0-0.3,0.1-0.3,0.2c-2.4,1.3-3.5,3.6-4.5,5.5c0,0-2.1,4.4-2.6,9.2
							c0,0.1,0,0.1,0,0.2c0,1.4,1.2,2.6,2.8,2.6c0.1,0,0.2,0,0.3,0c0.8-0.1,1.4-0.4,2-0.7l8,2.2c0,0,0,0,0.1,0l0,0c0,0,0,0,0,0
							c0.1,0,0.1,0,0.1,0c0,0,0.1,0,0.1,0c0,0,0,0,0.1,0c0,0,0,0,0.1,0l8-2.2c0.6,0.3,1.3,0.6,2,0.7c0.1,0,0.2,0,0.3,0
							c1.5,0,2.8-1.2,2.8-2.6C271.6,78.9,271.6,78.8,271.6,78.8z M257.2,80.8l-5.2-1.4c0.6-0.8,0.6-1.9,0-2.7
							c-0.3-0.4-0.7-0.7-1.2-0.8v-6.1l6.3,1.7L257.2,80.8L257.2,80.8z M265.5,75.9c-0.4,0.1-0.9,0.4-1.2,0.8c-0.6,0.8-0.6,1.9,0,2.7
							l-5.2,1.4v-9.2l6.3-1.7L265.5,75.9L265.5,75.9z"/>
						<path class="st3" d="M258.2,61.6c2.6,0,6.2-3.3,6.2-8.8c0-3.8-1.8-6.1-6.2-6.1c-4.4,0-6.3,2.3-6.2,6.1
							C252,58.3,255.1,61.6,258.2,61.6z M256.9,54.3c3.2,0.3,6-4.2,6-0.1c0,2.4-2.3,6.1-4.7,6.1c-2.6,0-4.4-3-4.7-6.1
							C253.1,50.9,259.1,51.6,256.9,54.3z"/>
					</g>
				</g>
			</g>
			<g>
				<g>
					<path class="st3" d="M173,69h-2.7c0-0.5,0-1-0.2-1.5c-0.6-2.7-2.6-5.9-2.6-5.9c0.1-0.9,0.3-2.3,0.3-3.7
						c0.1-2.4,0.5-10.2-6.6-10.2c-7,0-6.8,6.5-6.8,6.5l0.5,8.4c0,0-1.2,2-1.9,4.1c-0.3,0.8-0.3,1.6,0,2.4h-5l-2.8,11.8h30.5L173,69z
						 M156.4,65.9c0.3-0.4,0.6-0.6,0.6-0.6c0.1,0.2,0.1,0.4,0.2,0.7L156.4,65.9z M165.2,66c0.1-0.4,0.1-0.8,0.2-1.3
						c0,0,0.7,0.4,1.4,1.1L165.2,66z M154.9,67.2h12.7l-1.2,6.4h-10.4L154.9,67.2z M155.8,53.3c1.5-0.1,6.8-0.6,6.9-2.3
						c0.5,0.9,3.1,3.2,4.2,3.4c-0.2,2.3-1.9,4.2-4.1,4.8v2h0l0.7,0.3l-2.2,4l-2.2-4.1l0.6-0.1v-2.1c-2.3-0.7-3.9-2.8-3.9-5.3
						C155.8,53.7,155.8,53.5,155.8,53.3z M148.9,70h4.6c0.4,0.7,1,1.4,1.5,1.9l0,0l0.4,2.4H167l0.3-1.7l0.2,0.1
						c0.9-0.5,2-1.4,2.5-2.7h2.1l2.3,9.6h-27.8L148.9,70z"/>
					<circle class="st3" cx="161" cy="70.4" r="0.7"/>
				</g>
			</g>
		</g>
	</g>
</g>
</svg>
